<svg id="visual" viewBox="0 0 900 600" width="900" height="600" xmlns="http://www.w3.org/2000/svg" xmlns:xlink="http://www.w3.org/1999/xlink" version="1.1"><g stroke-width="1" stroke-linejoin="bevel"><path d="M501.9 293L572.7 241L496.9 245Z" fill="#001f3c" stroke="#001f3c"></path><path d="M501.9 293L585.7 298L572.7 241Z" fill="#00101c" stroke="#00101c"></path><path d="M501.9 293L557.7 347L585.7 298Z" fill="#00306e" stroke="#00306e"></path><path d="M557.7 347L631.5 312L585.7 298Z" fill="#00306e" stroke="#00306e"></path><path d="M585.7 298L644.5 237L572.7 241Z" fill="#001f3c" stroke="#001f3c"></path><path d="M631.5 312L644.5 237L585.7 298Z" fill="#1b44c2" stroke="#1b44c2"></path><path d="M572.7 241L495.9 153L496.9 245Z" fill="#00357f" stroke="#00357f"></path><path d="M585.7 134L495.9 153L572.7 241Z" fill="#00357f" stroke="#00357f"></path><path d="M433.1 382L485.9 390L501.9 293Z" fill="#003990" stroke="#003990"></path><path d="M501.9 293L485.9 390L557.7 347Z" fill="#001f3c" stroke="#001f3c"></path><path d="M557.7 347L657.5 375L631.5 312Z" fill="#001f3c" stroke="#001f3c"></path><path d="M389.1 303L501.9 293L496.9 245Z" fill="#1b44c2" stroke="#1b44c2"></path><path d="M648.5 159L585.7 134L572.7 241Z" fill="#002b5d" stroke="#002b5d"></path><path d="M430.1 159L397.1 223L496.9 245Z" fill="#00254d" stroke="#00254d"></path><path d="M516.9 97L430.1 159L495.9 153Z" fill="#1b44c2" stroke="#1b44c2"></path><path d="M495.9 153L430.1 159L496.9 245Z" fill="#00182b" stroke="#00182b"></path><path d="M397.1 223L389.1 303L496.9 245Z" fill="#00357f" stroke="#00357f"></path><path d="M644.5 237L648.5 159L572.7 241Z" fill="#003da1" stroke="#003da1"></path><path d="M389.1 303L433.1 382L501.9 293Z" fill="#00306e" stroke="#00306e"></path><path d="M551.7 447L657.5 375L557.7 347Z" fill="#002b5d" stroke="#002b5d"></path><path d="M631.5 312L710.4 229L644.5 237Z" fill="#002b5d" stroke="#002b5d"></path><path d="M644.5 237L710.4 229L648.5 159Z" fill="#00306e" stroke="#00306e"></path><path d="M591.7 83L516.9 97L585.7 134Z" fill="#00101c" stroke="#00101c"></path><path d="M585.7 134L516.9 97L495.9 153Z" fill="#00306e" stroke="#00306e"></path><path d="M408.1 455L516.9 436L485.9 390Z" fill="#1b44c2" stroke="#1b44c2"></path><path d="M485.9 390L516.9 436L557.7 347Z" fill="#00101c" stroke="#00101c"></path><path d="M756.4 300L710.4 229L631.5 312Z" fill="#003990" stroke="#003990"></path><path d="M516.9 436L551.7 447L557.7 347Z" fill="#002b5d" stroke="#002b5d"></path><path d="M660.5 98L585.7 134L648.5 159Z" fill="#00254d" stroke="#00254d"></path><path d="M660.5 98L591.7 83L585.7 134Z" fill="#001f3c" stroke="#001f3c"></path><path d="M397.1 223L333.3 291L389.1 303Z" fill="#003990" stroke="#003990"></path><path d="M389.1 303L323.3 366L433.1 382Z" fill="#00306e" stroke="#00306e"></path><path d="M317.3 222L333.3 291L397.1 223Z" fill="#0941b1" stroke="#0941b1"></path><path d="M743.4 161L660.5 98L648.5 159Z" fill="#00254d" stroke="#00254d"></path><path d="M680.5 447L710.4 395L657.5 375Z" fill="#003da1" stroke="#003da1"></path><path d="M657.5 375L756.4 300L631.5 312Z" fill="#0941b1" stroke="#0941b1"></path><path d="M325.3 151L397.1 223L430.1 159Z" fill="#003da1" stroke="#003da1"></path><path d="M325.3 151L317.3 222L397.1 223Z" fill="#003da1" stroke="#003da1"></path><path d="M710.4 395L756.4 300L657.5 375Z" fill="#0941b1" stroke="#0941b1"></path><path d="M710.4 229L743.4 161L648.5 159Z" fill="#00101c" stroke="#00101c"></path><path d="M515.9 0L397.1 90L516.9 97Z" fill="#00254d" stroke="#00254d"></path><path d="M516.9 97L397.1 90L430.1 159Z" fill="#002b5d" stroke="#002b5d"></path><path d="M323.3 366L408.1 455L433.1 382Z" fill="#00182b" stroke="#00182b"></path><path d="M433.1 382L408.1 455L485.9 390Z" fill="#00182b" stroke="#00182b"></path><path d="M485.9 551L598.7 500L551.7 447Z" fill="#002b5d" stroke="#002b5d"></path><path d="M790.2 154L743.4 161L710.4 229Z" fill="#003da1" stroke="#003da1"></path><path d="M598.7 500L680.5 447L551.7 447Z" fill="#00357f" stroke="#00357f"></path><path d="M551.7 447L680.5 447L657.5 375Z" fill="#003990" stroke="#003990"></path><path d="M241.5 290L323.3 366L333.3 291Z" fill="#0941b1" stroke="#0941b1"></path><path d="M333.3 291L323.3 366L389.1 303Z" fill="#001f3c" stroke="#001f3c"></path><path d="M397.1 90L325.3 151L430.1 159Z" fill="#002b5d" stroke="#002b5d"></path><path d="M485.9 551L551.7 447L516.9 436Z" fill="#00101c" stroke="#00101c"></path><path d="M599.7 0L515.9 0L591.7 83Z" fill="#002b5d" stroke="#002b5d"></path><path d="M591.7 83L515.9 0L516.9 97Z" fill="#00254d" stroke="#00254d"></path><path d="M790.2 154L736.4 86L743.4 161Z" fill="#003da1" stroke="#003da1"></path><path d="M743.4 161L736.4 86L660.5 98Z" fill="#00254d" stroke="#00254d"></path><path d="M633.5 0L599.7 0L591.7 83Z" fill="#00182b" stroke="#00182b"></path><path d="M344.3 546L422.1 512L408.1 455Z" fill="#00254d" stroke="#00254d"></path><path d="M408.1 455L422.1 512L516.9 436Z" fill="#00182b" stroke="#00182b"></path><path d="M633.5 0L591.7 83L660.5 98Z" fill="#00254d" stroke="#00254d"></path><path d="M710.4 395L804.2 322L756.4 300Z" fill="#003da1" stroke="#003da1"></path><path d="M845.2 234L790.2 154L710.4 229Z" fill="#00254d" stroke="#00254d"></path><path d="M819.2 363L804.2 322L710.4 395Z" fill="#003da1" stroke="#003da1"></path><path d="M845.2 234L710.4 229L756.4 300Z" fill="#1b44c2" stroke="#1b44c2"></path><path d="M709.4 0L633.5 0L660.5 98Z" fill="#00357f" stroke="#00357f"></path><path d="M323.3 366L300.3 433L408.1 455Z" fill="#00357f" stroke="#00357f"></path><path d="M239.5 359L300.3 433L323.3 366Z" fill="#1b44c2" stroke="#1b44c2"></path><path d="M264.5 149L246.5 248L317.3 222Z" fill="#003da1" stroke="#003da1"></path><path d="M317.3 222L246.5 248L333.3 291Z" fill="#003990" stroke="#003990"></path><path d="M422.1 512L485.9 551L516.9 436Z" fill="#003990" stroke="#003990"></path><path d="M348.3 0L316.3 72L397.1 90Z" fill="#003da1" stroke="#003da1"></path><path d="M397.1 90L316.3 72L325.3 151Z" fill="#003990" stroke="#003990"></path><path d="M325.3 151L264.5 149L317.3 222Z" fill="#00306e" stroke="#00306e"></path><path d="M272.5 98L264.5 149L325.3 151Z" fill="#00101c" stroke="#00101c"></path><path d="M246.5 248L241.5 290L333.3 291Z" fill="#00182b" stroke="#00182b"></path><path d="M755.4 472L710.4 395L680.5 447Z" fill="#003da1" stroke="#003da1"></path><path d="M755.4 472L819.2 363L710.4 395Z" fill="#001f3c" stroke="#001f3c"></path><path d="M804.2 322L845.2 234L756.4 300Z" fill="#1b44c2" stroke="#1b44c2"></path><path d="M718.4 520L755.4 472L680.5 447Z" fill="#001f3c" stroke="#001f3c"></path><path d="M669.5 536L680.5 447L598.7 500Z" fill="#00182b" stroke="#00182b"></path><path d="M588.7 600L669.5 536L598.7 500Z" fill="#00254d" stroke="#00254d"></path><path d="M515.9 0L390.1 0L397.1 90Z" fill="#00182b" stroke="#00182b"></path><path d="M900 243L845.2 234L900 313Z" fill="#002b5d" stroke="#002b5d"></path><path d="M241.5 290L239.5 359L323.3 366Z" fill="#00101c" stroke="#00101c"></path><path d="M264.5 0L272.5 98L316.3 72Z" fill="#1b44c2" stroke="#1b44c2"></path><path d="M316.3 72L272.5 98L325.3 151Z" fill="#00254d" stroke="#00254d"></path><path d="M186.6 131L172.6 249L246.5 248Z" fill="#003990" stroke="#003990"></path><path d="M669.5 536L718.4 520L680.5 447Z" fill="#00357f" stroke="#00357f"></path><path d="M736.4 86L709.4 0L660.5 98Z" fill="#00357f" stroke="#00357f"></path><path d="M797.2 0L709.4 0L736.4 86Z" fill="#0941b1" stroke="#0941b1"></path><path d="M821.2 51L736.4 86L790.2 154Z" fill="#0941b1" stroke="#0941b1"></path><path d="M390.1 0L348.3 0L397.1 90Z" fill="#00254d" stroke="#00254d"></path><path d="M300.3 433L344.3 546L408.1 455Z" fill="#003da1" stroke="#003da1"></path><path d="M427.1 600L469.9 600L485.9 551Z" fill="#003da1" stroke="#003da1"></path><path d="M239.5 359L263.5 449L300.3 433Z" fill="#00182b" stroke="#00182b"></path><path d="M485.9 551L588.7 600L598.7 500Z" fill="#00182b" stroke="#00182b"></path><path d="M669.5 536L667.5 600L718.4 520Z" fill="#0941b1" stroke="#0941b1"></path><path d="M469.9 600L588.7 600L485.9 551Z" fill="#00182b" stroke="#00182b"></path><path d="M263.5 449L344.3 546L300.3 433Z" fill="#002b5d" stroke="#002b5d"></path><path d="M427.1 600L485.9 551L422.1 512Z" fill="#001f3c" stroke="#001f3c"></path><path d="M755.4 472L817.2 477L819.2 363Z" fill="#00254d" stroke="#00254d"></path><path d="M900 313L845.2 234L804.2 322Z" fill="#002b5d" stroke="#002b5d"></path><path d="M829.2 545L817.2 477L755.4 472Z" fill="#1b44c2" stroke="#1b44c2"></path><path d="M829.2 545L755.4 472L718.4 520Z" fill="#001f3c" stroke="#001f3c"></path><path d="M344.3 546L427.1 600L422.1 512Z" fill="#0941b1" stroke="#0941b1"></path><path d="M900 82L821.2 51L790.2 154Z" fill="#00254d" stroke="#00254d"></path><path d="M588.7 600L667.5 600L669.5 536Z" fill="#00357f" stroke="#00357f"></path><path d="M186.6 131L246.5 248L264.5 149Z" fill="#002b5d" stroke="#002b5d"></path><path d="M246.5 248L172.6 249L241.5 290Z" fill="#0941b1" stroke="#0941b1"></path><path d="M241.5 290L146.6 307L239.5 359Z" fill="#00357f" stroke="#00357f"></path><path d="M189.6 526L237.5 510L148.6 468Z" fill="#00357f" stroke="#00357f"></path><path d="M900 313L804.2 322L819.2 363Z" fill="#1b44c2" stroke="#1b44c2"></path><path d="M845.2 234L900 165L790.2 154Z" fill="#00306e" stroke="#00306e"></path><path d="M900 353L900 313L819.2 363Z" fill="#002b5d" stroke="#002b5d"></path><path d="M821.2 51L797.2 0L736.4 86Z" fill="#0941b1" stroke="#0941b1"></path><path d="M272.5 98L186.6 131L264.5 149Z" fill="#003da1" stroke="#003da1"></path><path d="M186.6 97L186.6 131L272.5 98Z" fill="#00254d" stroke="#00254d"></path><path d="M900 459L900 353L819.2 363Z" fill="#00357f" stroke="#00357f"></path><path d="M900 243L900 165L845.2 234Z" fill="#0941b1" stroke="#0941b1"></path><path d="M821.2 51L900 0L797.2 0Z" fill="#1b44c2" stroke="#1b44c2"></path><path d="M348.3 0L264.5 0L316.3 72Z" fill="#00101c" stroke="#00101c"></path><path d="M263.5 449L237.5 510L344.3 546Z" fill="#001f3c" stroke="#001f3c"></path><path d="M344.3 546L322.3 600L427.1 600Z" fill="#00182b" stroke="#00182b"></path><path d="M147.6 396L263.5 449L239.5 359Z" fill="#00101c" stroke="#00101c"></path><path d="M88.8 250L146.6 307L172.6 249Z" fill="#00254d" stroke="#00254d"></path><path d="M264.5 0L186.6 97L272.5 98Z" fill="#1b44c2" stroke="#1b44c2"></path><path d="M88.8 250L172.6 249L76.8 128Z" fill="#00254d" stroke="#00254d"></path><path d="M172.6 249L146.6 307L241.5 290Z" fill="#003990" stroke="#003990"></path><path d="M237.5 510L322.3 600L344.3 546Z" fill="#0941b1" stroke="#0941b1"></path><path d="M667.5 600L758.4 600L718.4 520Z" fill="#00101c" stroke="#00101c"></path><path d="M817.2 477L900 459L819.2 363Z" fill="#00101c" stroke="#00101c"></path><path d="M758.4 600L829.2 545L718.4 520Z" fill="#001f3c" stroke="#001f3c"></path><path d="M900 165L900 82L790.2 154Z" fill="#003990" stroke="#003990"></path><path d="M146.6 307L147.6 396L239.5 359Z" fill="#0941b1" stroke="#0941b1"></path><path d="M900 504L900 459L817.2 477Z" fill="#00357f" stroke="#00357f"></path><path d="M148.6 468L237.5 510L263.5 449Z" fill="#003da1" stroke="#003da1"></path><path d="M237.5 510L218.5 600L322.3 600Z" fill="#00306e" stroke="#00306e"></path><path d="M900 600L900 504L829.2 545Z" fill="#003990" stroke="#003990"></path><path d="M829.2 545L900 504L817.2 477Z" fill="#002b5d" stroke="#002b5d"></path><path d="M147.6 396L148.6 468L263.5 449Z" fill="#00357f" stroke="#00357f"></path><path d="M146.6 307L108.8 378L147.6 396Z" fill="#003990" stroke="#003990"></path><path d="M147.6 396L82.8 453L148.6 468Z" fill="#003990" stroke="#003990"></path><path d="M82.8 318L108.8 378L146.6 307Z" fill="#003da1" stroke="#003da1"></path><path d="M264.5 0L178.6 0L186.6 97Z" fill="#003990" stroke="#003990"></path><path d="M76.8 128L172.6 249L186.6 131Z" fill="#002b5d" stroke="#002b5d"></path><path d="M758.4 600L829.2 600L829.2 545Z" fill="#001f3c" stroke="#001f3c"></path><path d="M76.8 128L186.6 131L89.8 82Z" fill="#002b5d" stroke="#002b5d"></path><path d="M900 82L900 0L821.2 51Z" fill="#002b5d" stroke="#002b5d"></path><path d="M88.8 250L82.8 318L146.6 307Z" fill="#00182b" stroke="#00182b"></path><path d="M162.6 600L218.5 600L189.6 526Z" fill="#003da1" stroke="#003da1"></path><path d="M189.6 526L218.5 600L237.5 510Z" fill="#00182b" stroke="#00182b"></path><path d="M89.8 82L186.6 131L186.6 97Z" fill="#1b44c2" stroke="#1b44c2"></path><path d="M88.8 250L0 315L82.8 318Z" fill="#00101c" stroke="#00101c"></path><path d="M178.6 0L89.8 82L186.6 97Z" fill="#003da1" stroke="#003da1"></path><path d="M108.8 378L82.8 453L147.6 396Z" fill="#002b5d" stroke="#002b5d"></path><path d="M95.8 524L162.6 600L189.6 526Z" fill="#003990" stroke="#003990"></path><path d="M0 364L82.8 453L108.8 378Z" fill="#002b5d" stroke="#002b5d"></path><path d="M0 364L108.8 378L82.8 318Z" fill="#00306e" stroke="#00306e"></path><path d="M829.2 600L900 600L829.2 545Z" fill="#002b5d" stroke="#002b5d"></path><path d="M95.8 524L189.6 526L148.6 468Z" fill="#0941b1" stroke="#0941b1"></path><path d="M82.8 453L95.8 524L148.6 468Z" fill="#00101c" stroke="#00101c"></path><path d="M178.6 0L97.8 0L89.8 82Z" fill="#003da1" stroke="#003da1"></path><path d="M0 156L0 224L76.8 128Z" fill="#001f3c" stroke="#001f3c"></path><path d="M0 156L76.8 128L0 73Z" fill="#00182b" stroke="#00182b"></path><path d="M76.8 128L0 224L88.8 250Z" fill="#00357f" stroke="#00357f"></path><path d="M82.8 453L0 471L95.8 524Z" fill="#1b44c2" stroke="#1b44c2"></path><path d="M0 224L0 315L88.8 250Z" fill="#002b5d" stroke="#002b5d"></path><path d="M0 315L0 364L82.8 318Z" fill="#002b5d" stroke="#002b5d"></path><path d="M0 73L76.8 128L89.8 82Z" fill="#00306e" stroke="#00306e"></path><path d="M0 546L79.8 600L95.8 524Z" fill="#1b44c2" stroke="#1b44c2"></path><path d="M95.8 524L79.8 600L162.6 600Z" fill="#001f3c" stroke="#001f3c"></path><path d="M97.8 0L0 73L89.8 82Z" fill="#002b5d" stroke="#002b5d"></path><path d="M0 364L0 471L82.8 453Z" fill="#1b44c2" stroke="#1b44c2"></path><path d="M97.8 0L0 0L0 73Z" fill="#00182b" stroke="#00182b"></path><path d="M0 471L0 546L95.8 524Z" fill="#003da1" stroke="#003da1"></path><path d="M0 546L0 600L79.8 600Z" fill="#001f3c" stroke="#001f3c"></path></g></svg>